# xmcd CD database file
#
# Track frame offsets:
#	150
#	19103
#	40428
#	59331
#
# Disc length: 1072 seconds
#
# Revision: 1
# Processed by: cddbd v1.5.2PL0 Copyright (c) Steve Scherf et al.
# Submitted via: CDex 1.70beta3
#
DISCID=2f042e04
DTITLE=後藤邑子（エリカ）／斎藤千和（イニ） - TVアニメ「アスタロッテのおもちゃ！」キャラクターソングCD Vol.4 エリカ／イニ
DYEAR=2011
DGENRE=Anime
TTITLE0=斎藤千和/この世はミステリー
TTITLE1=後藤邑子/ミライコンパス
TTITLE2=この世はミステリー (Instrumental)
TTITLE3=ミライコンパス (Instrumental)
EXTD=YEAR: 2011
EXTT0=
EXTT1=
EXTT2=
EXTT3=
PLAYORDER=
